<svg xmlns="http://www.w3.org/2000/svg" width="870" height="730">
    <rect x="0" y="0" width="870" height="730" fill="#a0328b"/>
    <path d="M866,84L655,187L873,317Z" fill="#a83a93" stroke="#a83a93" stroke-width="1.51"/>
    <path d="M819,409L689,436L843,598Z" fill="#9e388b" stroke="#9e388b" stroke-width="1.51"/>
    <path d="M727,689L838,735L843,598Z" fill="#a3378f" stroke="#a3378f" stroke-width="1.51"/>
    <path d="M787,33L655,187L866,84Z" fill="#a5348e" stroke="#a5348e" stroke-width="1.51"/>
    <path d="M656,265L819,409L873,317Z" fill="#983285" stroke="#983285" stroke-width="1.51"/>
    <path d="M655,187L656,265L873,317Z" fill="#9f338b" stroke="#9f338b" stroke-width="1.51"/>
    <path d="M735,-158L711,16L787,33Z" fill="#9e328a" stroke="#9e328a" stroke-width="1.51"/>
    <path d="M838,735L727,689L861,842Z" fill="#a2318b" stroke="#a2318b" stroke-width="1.51"/>
    <path d="M727,689L637,904L861,842Z" fill="#a1308a" stroke="#a1308a" stroke-width="1.51"/>
    <path d="M656,265L689,436L819,409Z" fill="#993386" stroke="#993386" stroke-width="1.51"/>
    <path d="M635,580L727,689L843,598Z" fill="#9d3489" stroke="#9d3489" stroke-width="1.51"/>
    <path d="M689,436L635,580L843,598Z" fill="#932d80" stroke="#932d80" stroke-width="1.51"/>
    <path d="M711,16L655,187L787,33Z" fill="#a0328b" stroke="#a0328b" stroke-width="1.51"/>
    <path d="M585,176L655,187L711,16Z" fill="#993085" stroke="#993085" stroke-width="1.51"/>
    <path d="M551,-195L497,37L711,16Z" fill="#a83a93" stroke="#a83a93" stroke-width="1.51"/>
    <path d="M510,705L637,904L727,689Z" fill="#932d80" stroke="#932d80" stroke-width="1.51"/>
    <path d="M551,-195L711,16L735,-158Z" fill="#a3378f" stroke="#a3378f" stroke-width="1.51"/>
    <path d="M635,580L510,705L727,689Z" fill="#a5348e" stroke="#a5348e" stroke-width="1.51"/>
    <path d="M656,265L526,284L689,436Z" fill="#9f338b" stroke="#9f338b" stroke-width="1.51"/>
    <path d="M497,37L585,176L711,16Z" fill="#9e328a" stroke="#9e328a" stroke-width="1.51"/>
    <path d="M553,580L635,580L689,436Z" fill="#a2318b" stroke="#a2318b" stroke-width="1.51"/>
    <path d="M484,421L553,580L689,436Z" fill="#a1308a" stroke="#a1308a" stroke-width="1.51"/>
    <path d="M526,284L484,421L689,436Z" fill="#993386" stroke="#993386" stroke-width="1.51"/>
    <path d="M553,580L510,705L635,580Z" fill="#9d3489" stroke="#9d3489" stroke-width="1.51"/>
    <path d="M655,187L585,176L656,265Z" fill="#932d80" stroke="#932d80" stroke-width="1.51"/>
    <path d="M585,176L526,284L656,265Z" fill="#a0328b" stroke="#a0328b" stroke-width="1.51"/>
    <path d="M416,-117L497,37L551,-195Z" fill="#a83a93" stroke="#a83a93" stroke-width="1.51"/>
    <path d="M497,37L375,90L585,176Z" fill="#983285" stroke="#983285" stroke-width="1.51"/>
    <path d="M359,233L526,284L585,176Z" fill="#a5348e" stroke="#a5348e" stroke-width="1.51"/>
    <path d="M375,90L359,233L585,176Z" fill="#9e328a" stroke="#9e328a" stroke-width="1.51"/>
    <path d="M347,531L436,730L510,705Z" fill="#a1308a" stroke="#a1308a" stroke-width="1.51"/>
    <path d="M347,531L510,705L553,580Z" fill="#993386" stroke="#993386" stroke-width="1.51"/>
    <path d="M484,421L347,531L553,580Z" fill="#932d80" stroke="#932d80" stroke-width="1.51"/>
    <path d="M393,424L347,531L484,421Z" fill="#a0328b" stroke="#a0328b" stroke-width="1.51"/>
    <path d="M416,-117L379,24L497,37Z" fill="#993085" stroke="#993085" stroke-width="1.51"/>
    <path d="M393,424L484,421L526,284Z" fill="#a83a93" stroke="#a83a93" stroke-width="1.51"/>
    <path d="M359,233L393,424L526,284Z" fill="#9e388b" stroke="#9e388b" stroke-width="1.51"/>
    <path d="M379,24L375,90L497,37Z" fill="#a3378f" stroke="#a3378f" stroke-width="1.51"/>
    <path d="M359,233L288,313L393,424Z" fill="#a5348e" stroke="#a5348e" stroke-width="1.51"/>
    <path d="M292,-51L379,24L416,-117Z" fill="#983285" stroke="#983285" stroke-width="1.51"/>
    <path d="M347,531L244,547L436,730Z" fill="#9e328a" stroke="#9e328a" stroke-width="1.51"/>
    <path d="M244,547L198,749L436,730Z" fill="#a2318b" stroke="#a2318b" stroke-width="1.51"/>
    <path d="M299,102L359,233L375,90Z" fill="#993386" stroke="#993386" stroke-width="1.51"/>
    <path d="M221,464L347,531L393,424Z" fill="#a0328b" stroke="#a0328b" stroke-width="1.51"/>
    <path d="M288,313L221,464L393,424Z" fill="#993085" stroke="#993085" stroke-width="1.51"/>
    <path d="M299,102L375,90L379,24Z" fill="#a83a93" stroke="#a83a93" stroke-width="1.51"/>
    <path d="M292,-51L299,102L379,24Z" fill="#9e388b" stroke="#9e388b" stroke-width="1.51"/>
    <path d="M221,464L244,547L347,531Z" fill="#a3378f" stroke="#a3378f" stroke-width="1.51"/>
    <path d="M299,102L288,313L359,233Z" fill="#a5348e" stroke="#a5348e" stroke-width="1.51"/>
    <path d="M115,381L221,464L288,313Z" fill="#983285" stroke="#983285" stroke-width="1.51"/>
    <path d="M58,-8L77,101L292,-51Z" fill="#9f338b" stroke="#9f338b" stroke-width="1.51"/>
    <path d="M119,314L288,313L299,102Z" fill="#9e328a" stroke="#9e328a" stroke-width="1.51"/>
    <path d="M77,101L119,314L299,102Z" fill="#932d80" stroke="#932d80" stroke-width="1.51"/>
    <path d="M292,-51L77,101L299,102Z" fill="#a1308a" stroke="#a1308a" stroke-width="1.51"/>
    <path d="M119,314L115,381L288,313Z" fill="#9e388b" stroke="#9e388b" stroke-width="1.51"/>
    <path d="M138,750L198,749L244,547Z" fill="#a83a93" stroke="#a83a93" stroke-width="1.51"/>
    <path d="M107,519L138,750L244,547Z" fill="#9e388b" stroke="#9e388b" stroke-width="1.51"/>
    <path d="M221,464L107,519L244,547Z" fill="#a5348e" stroke="#a5348e" stroke-width="1.51"/>
    <path d="M107,519L5,672L138,750Z" fill="#983285" stroke="#983285" stroke-width="1.51"/>
    <path d="M115,381L107,519L221,464Z" fill="#9f338b" stroke="#9f338b" stroke-width="1.51"/>
    <path d="M77,101L-1,233L119,314Z" fill="#9e328a" stroke="#9e328a" stroke-width="1.51"/>
    <path d="M-37,591L5,672L107,519Z" fill="#a1308a" stroke="#a1308a" stroke-width="1.51"/>
    <path d="M-54,454L107,519L115,381Z" fill="#993386" stroke="#993386" stroke-width="1.51"/>
    <path d="M5,672L-57,876L135,825Z" fill="#9d3489" stroke="#9d3489" stroke-width="1.51"/>
    <path d="M5,672L135,825L138,750Z" fill="#932d80" stroke="#932d80" stroke-width="1.51"/>
    <path d="M-22,129L-1,233L77,101Z" fill="#a0328b" stroke="#a0328b" stroke-width="1.51"/>
    <path d="M-1,233L-54,454L115,381Z" fill="#993085" stroke="#993085" stroke-width="1.51"/>
    <path d="M-1,233L115,381L119,314Z" fill="#a83a93" stroke="#a83a93" stroke-width="1.51"/>
    <path d="M-54,454L-37,591L107,519Z" fill="#9e388b" stroke="#9e388b" stroke-width="1.51"/>
    <path d="M58,-8L-22,129L77,101Z" fill="#a5348e" stroke="#a5348e" stroke-width="1.51"/>
    <path d="M-83,-43L-22,129L58,-8Z" fill="#9f338b" stroke="#9f338b" stroke-width="1.51"/>
    <path d="M-187,809L-57,876L5,672Z" fill="#a1308a" stroke="#a1308a" stroke-width="1.51"/>
    <path d="M-157,663L-187,809L5,672Z" fill="#993386" stroke="#993386" stroke-width="1.51"/>
    <path d="M-37,591L-157,663L5,672Z" fill="#9d3489" stroke="#9d3489" stroke-width="1.51"/>
</svg>